<?xml version="1.0" standalone="no"?>
<!DOCTYPE svg PUBLIC "-//W3C//DTD SVG 20010904//EN"
 "http://www.w3.org/TR/2001/REC-SVG-20010904/DTD/svg10.dtd">
<svg version="1.0" xmlns="http://www.w3.org/2000/svg"
 width="700.000000pt" height="700.000000pt" viewBox="0 0 700.000000 700.000000"
 preserveAspectRatio="xMidYMid meet">
<metadata>
Created by potrace 1.14, written by Peter Selinger 2001-2017
</metadata>
<g transform="translate(0.000000,700.000000) scale(0.100000,-0.100000)"
fill="#000000" stroke="none">
<path d="M3215 6994 c-527 -52 -991 -193 -1418 -433 -575 -321 -1037 -783
-1359 -1358 -213 -382 -345 -781 -415 -1258 -14 -95 -18 -187 -18 -445 0 -348
7 -419 61 -695 198 -995 833 -1864 1731 -2366 381 -214 782 -346 1258 -416
152 -22 706 -25 855 -5 691 95 1270 339 1784 752 639 514 1087 1249 1240 2038
55 283 61 346 61 692 0 346 -6 409 -61 692 -148 762 -575 1482 -1179 1989
-517 433 -1119 699 -1800 795 -114 16 -633 28 -740 18z m-530 -1939 c116 -55
211 -179 235 -304 5 -29 10 -157 10 -284 l0 -230 -118 -121 c-65 -67 -223
-228 -350 -360 l-232 -238 0 -607 c0 -665 0 -666 59 -747 63 -85 194 -124 299
-90 67 23 133 83 163 148 l24 53 3 621 3 621 187 185 c103 102 444 435 758
740 626 608 623 606 768 631 182 31 376 -72 453 -240 51 -111 41 -270 -24
-380 -25 -43 -216 -231 -953 -937 -228 -219 -416 -401 -417 -404 -4 -9 918
-958 960 -989 36 -27 116 -53 162 -53 179 0 306 179 250 351 -17 50 -41 77
-344 376 l-326 322 52 52 52 52 38 -33 c21 -18 170 -163 330 -322 355 -351
358 -356 358 -533 0 -103 -2 -114 -32 -177 -103 -218 -357 -299 -583 -187 -52
27 -126 99 -580 564 -286 294 -522 545 -525 557 -3 13 -2 33 2 44 7 18 1223
1196 1358 1315 196 175 92 472 -167 473 -120 0 -102 15 -903 -764 l-724 -705
-1 -577 c0 -384 -4 -595 -11 -630 -28 -132 -116 -244 -236 -301 -64 -30 -74
-32 -183 -32 -110 0 -119 2 -181 32 -83 41 -159 121 -202 210 l-32 68 -3 679
-3 678 114 117 c62 64 220 226 350 360 l237 243 0 178 c0 244 -16 315 -85 385
-46 46 -101 68 -176 73 -85 5 -151 -22 -213 -88 -66 -70 -76 -115 -76 -334
l-1 -181 -74 -80 -75 -80 2 300 3 300 31 66 c52 110 138 190 247 230 41 15 73
18 157 16 92 -3 113 -7 165 -32z"/>
</g>
</svg>
