<svg width="908" height="908" viewBox="0 0 908 908" fill="none" xmlns="http://www.w3.org/2000/svg">
<rect width="908" height="908" rx="36" fill="#F27961"/>
<path d="M537 223.926C537 195.805 514.195 173 486.074 173C474.147 173 463.178 177.115 454.5 183.99C445.822 177.115 434.853 173 422.926 173C394.805 173 372 195.805 372 223.926C372 235.853 376.115 246.822 382.99 255.5C376.115 264.178 372 275.147 372 287.074C372 315.195 394.805 338 422.926 338C434.853 338 445.822 333.885 454.5 327.01C463.178 333.885 474.147 338 486.074 338C514.195 338 537 315.195 537 287.074C537 275.147 532.885 264.178 526.01 255.5C532.885 246.822 537 235.853 537 223.926ZM454.5 288.602C436.218 288.602 421.398 273.782 421.398 255.5C421.398 237.218 436.218 222.398 454.5 222.398C472.782 222.398 487.602 237.218 487.602 255.5C487.602 273.782 472.782 288.602 454.5 288.602Z" fill="white"/>
<g clip-path="url(#clip0_2520_4722)">
<path d="M170 437.838H197.228V450.285C201.884 445.171 207.055 441.358 212.751 438.827C218.437 436.305 224.648 435.044 231.364 435.044C238.08 435.044 244.271 436.708 249.725 440.027C255.178 443.345 259.572 448.197 262.894 454.571C267.217 448.197 272.529 443.345 278.811 440.027C285.103 436.708 291.97 435.044 299.424 435.044C306.877 435.044 313.926 436.84 319.784 440.42C325.642 444.011 329.853 448.691 332.408 454.46C334.974 460.24 336.246 469.63 336.246 482.652V546.206H308.816V491.225C308.816 478.94 307.281 470.619 304.231 466.272C301.171 461.924 296.586 459.746 290.466 459.746C285.81 459.746 281.639 461.077 277.952 463.73C274.266 466.383 271.519 470.054 269.721 474.734C267.924 479.414 267.025 486.939 267.025 497.297V546.206H239.595V493.706C239.595 484.013 238.878 476.993 237.444 472.636C236.01 468.289 233.858 465.051 230.99 462.923C228.122 460.795 224.658 459.736 220.588 459.736C216.053 459.736 211.943 461.077 208.236 463.77C204.54 466.463 201.773 470.225 199.935 475.077C198.107 479.928 197.188 487.564 197.188 497.983V546.196H170V437.838Z" fill="white"/>
<path d="M414.456 435.044C424.697 435.044 434.321 437.606 443.33 442.71C452.339 447.824 459.368 454.763 464.428 463.528C469.477 472.293 472.012 481.754 472.012 491.921C472.012 502.088 469.467 511.711 464.387 520.607C459.297 529.503 452.369 536.463 443.593 541.475C434.816 546.488 425.141 549 414.567 549C399.004 549 385.723 543.473 374.725 532.418C363.716 521.363 358.222 507.928 358.222 492.123C358.222 475.188 364.444 461.077 376.876 449.79C387.783 439.966 400.317 435.044 414.476 435.044H414.456ZM414.9 460.643C406.437 460.643 399.398 463.579 393.772 469.459C388.147 475.339 385.329 482.854 385.329 492.022C385.329 501.191 388.107 509.088 393.671 514.928C399.236 520.768 406.275 523.693 414.799 523.693C423.323 523.693 430.413 520.738 436.079 514.827C441.734 508.917 444.572 501.312 444.572 492.012C444.572 482.712 441.795 475.158 436.23 469.348C430.665 463.538 423.555 460.633 414.9 460.633V460.643Z" fill="white"/>
<path d="M574.541 396H601.769V546.216H574.541V534.758C569.229 539.801 563.897 543.442 558.554 545.661C553.211 547.89 547.414 549 541.173 549C527.155 549 515.036 543.574 504.815 532.711C494.595 521.848 489.474 508.352 489.474 492.214C489.474 476.076 494.423 461.763 504.32 451.072C514.218 440.38 526.236 435.034 540.385 435.034C546.889 435.034 552.999 436.265 558.716 438.716C564.432 441.177 569.704 444.858 574.562 449.77V396H574.541ZM545.92 460.149C537.507 460.149 530.508 463.125 524.943 469.066C519.378 475.006 516.591 482.632 516.591 491.931C516.591 501.231 519.419 508.997 525.095 515.039C530.76 521.081 537.739 524.107 546.021 524.107C554.302 524.107 561.665 521.131 567.29 515.191C572.925 509.25 575.743 501.463 575.743 491.831C575.743 482.198 572.925 474.764 567.29 468.924C561.655 463.084 554.534 460.159 545.92 460.159V460.149Z" fill="white"/>
<path d="M681.443 435.044C691.684 435.044 701.309 437.606 710.318 442.71C719.326 447.824 726.355 454.763 731.415 463.528C736.465 472.293 739 481.754 739 491.921C739 502.088 736.455 511.711 731.375 520.607C726.285 529.503 719.357 536.463 710.58 541.475C701.804 546.488 692.129 549 681.554 549C665.991 549 652.711 543.473 641.712 532.418C630.704 521.363 625.21 507.928 625.21 492.123C625.21 475.188 631.431 461.077 643.864 449.79C654.771 439.966 667.304 435.044 681.464 435.044H681.443ZM681.898 460.643C673.435 460.643 666.395 463.579 660.77 469.459C655.145 475.339 652.327 482.854 652.327 492.022C652.327 501.191 655.104 509.088 660.669 514.928C666.234 520.768 673.273 523.693 681.797 523.693C690.321 523.693 697.411 520.738 703.076 514.827C708.732 508.917 711.57 501.312 711.57 492.012C711.57 482.712 708.793 475.158 703.228 469.348C697.663 463.538 690.553 460.633 681.898 460.633V460.643Z" fill="white"/>
</g>
<g clip-path="url(#clip1_2520_4722)">
<path d="M329.57 630.812H330.548L339.629 657.356H336.037L329.408 637.826L319.127 657.356H318.492L308.19 637.796L301.592 657.356H298L307.141 630.812H308.069L318.835 651.584L329.56 630.812H329.57Z" fill="white"/>
<path d="M357.406 630.121C361.523 630.121 364.933 631.604 367.647 634.56C370.109 637.255 371.34 640.452 371.34 644.149C371.34 647.847 370.038 651.103 367.435 653.869C364.832 656.635 361.492 658.028 357.406 658.028C353.32 658.028 349.95 656.645 347.357 653.869C344.764 651.093 343.453 647.857 343.453 644.149C343.453 640.442 344.684 637.285 347.145 634.59C349.849 631.614 353.27 630.121 357.406 630.121ZM357.396 633.467C354.541 633.467 352.079 634.52 350.021 636.614C347.963 638.708 346.944 641.253 346.944 644.229C346.944 646.153 347.408 647.937 348.346 649.6C349.284 651.264 350.545 652.536 352.14 653.438C353.734 654.34 355.479 654.791 357.386 654.791C359.293 654.791 361.038 654.34 362.643 653.438C364.237 652.536 365.498 651.254 366.436 649.6C367.375 647.947 367.839 646.153 367.839 644.229C367.839 641.253 366.81 638.718 364.741 636.614C362.683 634.52 360.221 633.467 357.386 633.467H357.396Z" fill="white"/>
<path d="M396.695 644.57H381.147V657.356H377.706V630.812H381.147V641.354H396.695V630.812H400.135V657.356H396.695V644.57Z" fill="white"/>
<path d="M420.445 630.121C424.561 630.121 427.972 631.604 430.686 634.56C433.147 637.255 434.378 640.452 434.378 644.149C434.378 647.847 433.077 651.103 430.474 653.869C427.871 656.635 424.531 658.028 420.445 658.028C416.359 658.028 412.989 656.645 410.396 653.869C407.803 651.093 406.491 647.857 406.491 644.149C406.491 640.442 407.722 637.285 410.184 634.59C412.888 631.614 416.308 630.121 420.445 630.121ZM420.435 633.467C417.579 633.467 415.118 634.52 413.059 636.614C411.001 638.708 409.982 641.253 409.982 644.229C409.982 646.153 410.446 647.937 411.385 649.6C412.323 651.264 413.584 652.536 415.178 653.438C416.772 654.34 418.518 654.791 420.425 654.791C422.332 654.791 424.077 654.34 425.681 653.438C427.275 652.536 428.537 651.254 429.475 649.6C430.413 647.947 430.877 646.153 430.877 644.229C430.877 641.253 429.848 638.718 427.78 636.614C425.722 634.52 423.26 633.467 420.425 633.467H420.435Z" fill="white"/>
<path d="M466.342 620V623.267C464.697 623.547 461.882 623.738 457.897 623.848C455.011 623.948 452.781 624.138 451.218 624.419C449.654 624.7 448.282 625.251 447.121 626.052C445.951 626.854 444.972 628.077 444.175 629.71C443.378 631.343 442.884 633.167 442.682 635.191L442.339 638.929C443.277 635.882 444.811 633.658 446.95 632.245C449.089 630.832 451.47 630.121 454.073 630.121C458.048 630.121 461.367 631.503 464.031 634.269C466.695 637.035 468.026 640.332 468.026 644.149C468.026 647.967 466.695 651.204 464.041 653.929C461.388 656.665 458.058 658.028 454.073 658.028C450.088 658.028 446.526 656.515 443.691 653.488C440.856 650.462 439.433 645.692 439.433 639.189C439.433 634.65 439.958 631.213 440.997 628.878C442.036 626.543 443.237 624.86 444.579 623.838C445.921 622.816 447.666 622.004 449.795 621.423C451.924 620.842 455.919 620.471 461.781 620.321C463.587 620.271 465.101 620.16 466.331 619.98L466.342 620ZM464.546 644.229C464.546 641.283 463.506 638.758 461.438 636.644C459.37 634.53 456.918 633.468 454.073 633.468C451.228 633.468 448.806 634.53 446.738 636.644C444.67 638.758 443.63 641.283 443.63 644.229C443.63 647.175 444.629 649.651 446.617 651.705C448.614 653.759 451.096 654.791 454.063 654.791C457.029 654.791 459.541 653.759 461.539 651.705C463.537 649.651 464.536 647.155 464.536 644.229H464.546Z" fill="white"/>
<path d="M471.527 630.812H475.16L484.341 651.254L493.26 630.812H496.922L480.981 667.066H477.349L482.495 655.342L471.527 630.802V630.812Z" fill="white"/>
<path d="M501.372 630.812H504.812V641.995L517.202 630.812H521.995L508.434 642.967L523.064 657.366H518.201L505.902 645.091L504.822 646.043V657.366H501.382V630.812H501.372Z" fill="white"/>
<path d="M549.135 648.548L552.031 650.062C551.082 651.915 549.983 653.408 548.731 654.551C547.48 655.693 546.088 656.555 544.524 657.146C542.96 657.737 541.205 658.038 539.237 658.038C534.879 658.038 531.468 656.615 529.007 653.779C526.545 650.943 525.314 647.737 525.314 644.149C525.314 640.783 526.353 637.776 528.432 635.141C531.075 631.794 534.606 630.111 539.025 630.111C543.445 630.111 547.218 631.824 549.942 635.261C551.879 637.686 552.858 640.712 552.888 644.34H528.835C528.896 647.426 529.895 649.951 531.812 651.925C533.729 653.899 536.1 654.881 538.925 654.881C540.287 654.881 541.608 654.651 542.9 654.18C544.191 653.709 545.281 653.088 546.179 652.306C547.077 651.525 548.055 650.272 549.105 648.538L549.135 648.548ZM549.135 641.394C548.671 639.57 548.005 638.117 547.127 637.025C546.249 635.933 545.089 635.061 543.646 634.39C542.204 633.718 540.69 633.388 539.096 633.388C536.473 633.388 534.213 634.229 532.326 635.903C530.944 637.125 529.905 638.949 529.198 641.394H549.125H549.135Z" fill="white"/>
<path d="M556.329 630.812H573.915V633.768H566.842V657.366H563.401V633.758H556.329V630.802V630.812Z" fill="white"/>
<path d="M581.996 641.323H585.265C587.868 641.323 589.916 641.524 591.389 641.935C592.863 642.346 594.134 643.237 595.203 644.63C596.273 646.023 596.807 647.616 596.807 649.42C596.807 651.604 596.041 653.468 594.497 655.021C592.953 656.575 590.623 657.356 587.485 657.356H578.576V630.812H581.986V641.323H581.996ZM582.127 644.45V654.48H586.093C590.754 654.48 593.084 652.857 593.084 649.6C593.084 648.668 592.832 647.767 592.328 646.865C591.823 645.973 591.097 645.342 590.138 644.981C589.18 644.62 587.485 644.44 585.053 644.44H582.127V644.45ZM601.56 630.812H605V657.356H601.56V630.812Z" fill="white"/>
<path d="M375.9 690.093C380.017 690.093 383.427 691.576 386.141 694.532C388.603 697.228 389.834 700.424 389.834 704.122C389.834 707.819 388.532 711.076 385.929 713.842C383.326 716.607 379.986 718 375.9 718C371.814 718 368.444 716.617 365.851 713.842C363.258 711.066 361.947 707.829 361.947 704.122C361.947 700.414 363.177 697.258 365.639 694.562C368.343 691.586 371.764 690.093 375.9 690.093ZM375.88 693.43C373.025 693.43 370.563 694.482 368.505 696.576C366.446 698.671 365.427 701.216 365.427 704.192C365.427 706.116 365.891 707.9 366.83 709.563C367.768 711.226 369.029 712.499 370.623 713.401C372.218 714.303 373.963 714.754 375.87 714.754C377.777 714.754 379.522 714.303 381.126 713.401C382.721 712.499 383.982 711.216 384.92 709.563C385.858 707.91 386.323 706.116 386.323 704.192C386.323 701.216 385.293 698.681 383.225 696.576C381.167 694.482 378.705 693.43 375.87 693.43H375.88Z" fill="white"/>
<path d="M415.178 704.532H399.63V717.319H396.19V690.774H399.63V701.316H415.178V690.774H418.619V717.319H415.178V704.532Z" fill="white"/>
<path d="M448.917 717.319H445.255L436.305 697.989L427.427 717.319H423.744L436.003 690.774H436.618L448.917 717.319Z" fill="white"/>
<path d="M480.8 690.774V717.319H477.409V712.759C475.967 714.503 474.352 715.805 472.556 716.687C470.761 717.569 468.803 718 466.674 718C462.891 718 459.662 716.637 456.978 713.912C454.305 711.186 452.963 707.869 452.963 703.971C452.963 700.073 454.315 696.877 457.019 694.161C459.723 691.446 462.972 690.083 466.775 690.083C468.965 690.083 470.952 690.544 472.728 691.476C474.504 692.408 476.068 693.791 477.409 695.644V690.764H480.8V690.774ZM467.048 693.38C465.131 693.38 463.365 693.851 461.751 694.783C460.126 695.714 458.845 697.027 457.887 698.721C456.928 700.414 456.454 702.198 456.454 704.082C456.454 705.965 456.938 707.739 457.897 709.443C458.865 711.146 460.157 712.479 461.781 713.431C463.405 714.383 465.151 714.854 467.017 714.854C468.884 714.854 470.68 714.383 472.365 713.441C474.05 712.499 475.341 711.226 476.249 709.613C477.157 708.01 477.611 706.196 477.611 704.182C477.611 701.116 476.592 698.54 474.554 696.476C472.516 694.412 470.014 693.38 467.028 693.38H467.048Z" fill="white"/>
<path d="M491.979 690.774V710.414L511.613 690.774H511.885V717.318H508.445V697.859L488.962 717.318H488.548V690.774H491.989H491.979ZM491.484 680.113H494.723C495.278 680.954 496.025 681.596 496.963 682.016C497.891 682.437 499.011 682.648 500.302 682.648C501.594 682.648 502.673 682.457 503.471 682.087C504.278 681.716 505.034 681.054 505.751 680.113H508.899C508.535 681.576 507.617 682.798 506.134 683.78C504.651 684.762 502.694 685.253 500.272 685.253C497.851 685.253 495.904 684.772 494.38 683.8C492.857 682.828 491.888 681.596 491.484 680.103V680.113Z" fill="white"/>
<path d="M538.531 704.532H522.983V717.319H519.543V690.774H522.983V701.316H538.531V690.774H541.972V717.319H538.531V704.532Z" fill="white"/>
</g>
<defs>
<clipPath id="clip0_2520_4722">
<rect width="569" height="153" fill="white" transform="translate(170 396)"/>
</clipPath>
<clipPath id="clip1_2520_4722">
<rect width="307" height="98" fill="white" transform="translate(298 620)"/>
</clipPath>
</defs>
</svg>
