<svg width="152" height="17" viewBox="0 0 152 17" fill="none" xmlns="http://www.w3.org/2000/svg">
<path d="M0.03 16V0.862H2.582V7.097H4.264L9.02 0.862H11.92L6.265 8.199L12.587 16H9.629L4.264 9.446H2.582V16H0.03ZM20.9161 16.29C19.7755 16.29 18.7411 16.087 17.8131 15.681C16.8851 15.2557 16.0828 14.6853 15.4061 13.97C14.7295 13.2353 14.2075 12.3943 13.8401 11.447C13.4728 10.4997 13.2891 9.504 13.2891 8.46C13.2891 7.39667 13.4728 6.39133 13.8401 5.444C14.2075 4.49667 14.7295 3.66533 15.4061 2.95C16.0828 2.21533 16.8851 1.645 17.8131 1.239C18.7605 0.813666 19.7948 0.600999 20.9161 0.600999C22.0568 0.600999 23.0911 0.813666 24.0191 1.239C24.9471 1.645 25.7495 2.21533 26.4261 2.95C27.1221 3.66533 27.6538 4.49667 28.0211 5.444C28.3885 6.39133 28.5721 7.39667 28.5721 8.46C28.5721 9.504 28.3885 10.4997 28.0211 11.447C27.6538 12.3943 27.1318 13.2353 26.4551 13.97C25.7785 14.6853 24.9665 15.2557 24.0191 15.681C23.0911 16.087 22.0568 16.29 20.9161 16.29ZM15.8991 8.489C15.8991 9.533 16.1215 10.4803 16.5661 11.331C17.0301 12.1817 17.6391 12.8583 18.3931 13.361C19.1471 13.8443 19.9881 14.086 20.9161 14.086C21.8441 14.086 22.6851 13.8347 23.4391 13.332C24.2125 12.8293 24.8215 12.1527 25.2661 11.302C25.7301 10.432 25.9621 9.475 25.9621 8.431C25.9621 7.387 25.7301 6.43967 25.2661 5.589C24.8215 4.73833 24.2125 4.06167 23.4391 3.559C22.6851 3.05633 21.8441 2.805 20.9161 2.805C19.9881 2.805 19.1471 3.066 18.3931 3.588C17.6391 4.09067 17.0301 4.76733 16.5661 5.618C16.1215 6.46867 15.8991 7.42567 15.8991 8.489ZM31.6355 16V0.862H34.2745L39.9005 10.78L45.5555 0.862H48.1365V16H45.7005V4.545L40.7125 13.303H39.0885L34.0715 4.545V16H31.6355ZM52.2243 16V0.862H54.7763V6.024H58.5463C60.325 6.024 61.6687 6.47833 62.5773 7.387C63.5053 8.27633 63.9693 9.446 63.9693 10.896C63.9693 11.8627 63.7663 12.7327 63.3603 13.506C62.9737 14.2793 62.3937 14.8883 61.6203 15.333C60.847 15.7777 59.8803 16 58.7203 16H52.2243ZM54.7763 13.999H58.3723C59.0877 13.999 59.658 13.8637 60.0833 13.593C60.528 13.303 60.8567 12.926 61.0693 12.462C61.282 11.998 61.3883 11.4953 61.3883 10.954C61.3883 10.432 61.2917 9.94867 61.0983 9.504C60.905 9.05933 60.586 8.70167 60.1413 8.431C59.6967 8.16033 59.0877 8.025 58.3143 8.025H54.7763V13.999ZM79.2523 16.29C77.9183 16.29 76.739 16 75.7143 15.42C74.6897 14.84 73.868 14.0473 73.2493 13.042C72.6307 12.0173 72.2537 10.8573 72.1183 9.562H69.3053V16H66.7533V0.862H69.3053V7.329H72.1183C72.273 5.995 72.6597 4.82533 73.2783 3.82C73.9163 2.79533 74.7477 2.00267 75.7723 1.442C76.797 0.881333 77.957 0.600999 79.2523 0.600999C80.7797 0.600999 82.0943 0.958666 83.1963 1.674C84.2983 2.37 85.149 3.30767 85.7483 4.487C86.3477 5.66633 86.6473 6.99067 86.6473 8.46C86.6473 9.968 86.338 11.3117 85.7193 12.491C85.12 13.6703 84.2597 14.5983 83.1383 15.275C82.0363 15.9517 80.741 16.29 79.2523 16.29ZM79.2523 14.086C80.1997 14.086 81.031 13.8443 81.7463 13.361C82.4617 12.8777 83.0223 12.2203 83.4283 11.389C83.8343 10.5383 84.0373 9.562 84.0373 8.46C84.0373 7.3 83.8247 6.30433 83.3993 5.473C82.9933 4.62233 82.423 3.965 81.6883 3.501C80.973 3.037 80.161 2.805 79.2523 2.805C78.3437 2.805 77.5317 3.04667 76.8163 3.53C76.1203 3.994 75.579 4.65133 75.1923 5.502C74.8057 6.35267 74.6123 7.33867 74.6123 8.46C74.6123 9.60067 74.8057 10.5963 75.1923 11.447C75.5983 12.2977 76.1493 12.955 76.8453 13.419C77.5607 13.8637 78.363 14.086 79.2523 14.086ZM89.7204 16V0.862H92.2724V7.126H100.16V0.862H102.712V16H100.16V9.388H92.2724V16H89.7204ZM106.798 16V0.890999H109.35V12.578L117.818 0.862H120.138V16H117.586V4.545L109.234 16H106.798ZM127.898 16V3.124H122.678V0.862H135.67V3.124H130.45V16H127.898ZM138.205 16V0.890999H140.757V12.578L149.225 0.862H151.545V16H148.993V4.545L140.641 16H138.205Z" fill="white"/>
</svg>
