<svg width="54" height="61" viewBox="0 0 54 61" fill="none" xmlns="http://www.w3.org/2000/svg">
<path d="M41.0657 58.5123L41.1058 58.5517C42.6252 59.998 44.5621 60.7375 46.4895 60.7375C48.4135 60.7375 50.2553 60.0279 51.7392 58.4743L51.74 58.4735C54.7462 55.3333 54.7008 50.3912 51.9162 47.1975H51.9009L40.8622 35.6228L38.8058 37.7729L49.3714 48.8725H49.4033L49.6997 49.1895C51.5994 51.2208 51.5868 54.3152 49.7488 56.2563L49.7439 56.2614C47.9516 58.1276 45.0261 58.1706 43 56.2403L42.974 56.2155L26.3709 37.9573L49.5454 14.1958L49.5883 14.1606C49.6663 14.0966 49.7427 14.0106 49.8859 13.8414L50.1855 13.4875H50.2004C52.6383 10.3232 52.6857 5.74717 49.8624 2.69851C46.9354 -0.459671 42.2524 -0.466673 39.1646 2.39113L12.8934 29.6966C12.6173 29.9846 12.4523 30.3933 12.4523 30.7887V52.9028L12.4521 52.9143C12.3875 55.7115 10.2901 57.9075 7.63931 57.9075C4.96639 57.9075 2.87961 55.6573 2.87961 52.76V30.1654L14.9231 16.9411L14.9243 16.9397C15.18 16.6558 15.3319 16.2669 15.3319 15.8525V8.24C15.3319 3.71294 12.039 0 7.7193 0C3.38055 0 0 3.68112 0 8.24V17.8751L2.87961 14.5601V8.24C2.87961 5.3936 4.99452 3.06625 7.7193 3.06625C10.4712 3.06625 12.4523 5.37069 12.4523 8.24V15.2421L0.408827 28.4664L0.407558 28.4678C0.144821 28.7595 0 29.1249 0 29.5287V52.9325C0.0506077 55.1319 0.892864 57.1756 2.24024 58.6431C3.58475 60.0812 5.45797 61 7.63931 61C11.923 61 15.3319 57.2945 15.3319 52.76V31.4624L40.8703 4.88753C42.8814 2.84278 45.9643 2.87465 47.8327 4.87894C49.5631 6.71816 49.5818 9.56966 47.9007 11.6065L47.8745 11.6383L23.3676 36.7891L23.3627 36.7942C22.7767 37.387 22.762 38.3841 23.3115 38.9887L41.0657 58.5123Z" fill="white"/>
</svg>
